<svg width="62" height="62" viewBox="0 0 62 62" fill="none" xmlns="http://www.w3.org/2000/svg">
<path d="M42.4071 0.000161009C31.9563 0.000161009 23.5343 8.45787 23.5343 18.953C23.5343 19.5098 23.6216 20.2631 23.6829 20.9525L3.48196 41.2368C2.37852 42.3378 1.5028 43.647 0.905225 45.0892C0.307645 46.5314 0 48.078 0 49.64C0 51.2021 0.307645 52.7487 0.905225 54.1909C1.5028 55.6331 2.37852 56.9423 3.48196 58.0433C4.57825 59.1514 5.88196 60.0308 7.31804 60.6309C8.75413 61.2311 10.2942 61.54 11.8497 61.54C13.4051 61.54 14.9452 61.2311 16.3813 60.6309C17.8174 60.0308 19.1211 59.1514 20.2174 58.0433L40.416 37.7566C41.1001 37.8182 41.855 37.9059 42.4071 37.9059C52.8579 37.9059 61.2799 29.4482 61.2799 18.953C61.292 15.8993 60.5305 12.8926 59.067 10.2157L57.5926 7.47706L55.3821 9.69928L45.2073 19.8391L41.5224 16.1385L51.6194 5.92293L53.8369 3.7007L51.1074 2.22001C48.4417 0.751143 45.4477 -0.012751 42.4071 0.000161009ZM42.4071 4.73837C43.5536 4.73837 44.4076 5.23589 45.4267 5.47991L36.5093 14.4351L34.8108 16.1409L36.5093 17.7685L43.5866 24.8758L45.2097 26.5815L46.9035 24.8758L55.8256 15.9206C56.0686 16.944 56.5617 17.8016 56.5617 18.953C56.5617 26.9369 50.3572 33.1677 42.4071 33.1677C41.4634 33.1677 40.7085 33.1677 40.1188 33.0184L38.8684 32.6488L37.9106 33.613L16.8981 54.7147C13.9965 57.6287 9.7029 57.6287 6.80121 54.7147L6.72572 54.6389C3.8948 51.7249 3.91839 47.4605 6.79649 44.5702L27.809 23.4709L28.7691 22.509L28.3964 21.2534C28.2548 20.6611 28.2501 19.903 28.2501 18.9554C28.2501 10.9715 34.4546 4.74074 42.4047 4.74074L42.4071 4.73837Z" fill="#2FE5E4"/>
</svg>
